<?xml version="1.0" encoding="UTF-8"?><svg xmlns="http://www.w3.org/2000/svg" xmlns:xlink="http://www.w3.org/1999/xlink" fill-opacity="1" color-rendering="auto" color-interpolation="auto" text-rendering="auto" stroke="black" stroke-linecap="square" width="358" stroke-miterlimit="10" shape-rendering="auto" stroke-opacity="1" fill="black" stroke-dasharray="none" font-weight="normal" stroke-width="1" height="418" font-family="'Dialog'" font-style="normal" stroke-linejoin="miter" font-size="12px" stroke-dashoffset="0" image-rendering="auto">
  <!--Generated by ySVG 2.5-->
  <defs id="genericDefs"/>
  <g>
    <defs id="defs1">
      <clipPath clipPathUnits="userSpaceOnUse" id="clipPath1">
        <path d="M0 0 L358 0 L358 418 L0 418 L0 0 Z"/>
      </clipPath>
      <clipPath clipPathUnits="userSpaceOnUse" id="clipPath2">
        <path d="M-19 -15 L339 -15 L339 403 L-19 403 L-19 -15 Z"/>
      </clipPath>
    </defs>
    <g fill="white" text-rendering="geometricPrecision" shape-rendering="geometricPrecision" transform="translate(19,15)" stroke="white">
      <rect x="-19" width="358" height="418" y="-15" clip-path="url(#clipPath2)" stroke="none"/>
    </g>
    <g fill="rgb(255,204,0)" text-rendering="geometricPrecision" shape-rendering="geometricPrecision" transform="matrix(1,0,0,1,19,15)" stroke="rgb(255,204,0)">
      <circle r="15" clip-path="url(#clipPath2)" cx="258.137" cy="233" stroke="none"/>
    </g>
    <g text-rendering="geometricPrecision" stroke-miterlimit="1.45" shape-rendering="geometricPrecision" transform="matrix(1,0,0,1,19,15)" stroke-linecap="butt">
      <circle fill="none" r="15" clip-path="url(#clipPath2)" cx="258.137" cy="233"/>
    </g>
    <g stroke-linecap="butt" font-size="9px" transform="matrix(1,0,0,1,19,15)" fill="red" text-rendering="geometricPrecision" font-family="sans-serif" shape-rendering="geometricPrecision" stroke="red" stroke-miterlimit="1.45">
      <text x="237.4109" xml:space="preserve" y="221.1157" clip-path="url(#clipPath2)" stroke="none">12</text>
      <text x="252.9602" font-size="12px" y="237.1543" clip-path="url(#clipPath2)" fill="black" stroke="none" xml:space="preserve">M</text>
    </g>
    <g fill="rgb(255,204,0)" text-rendering="geometricPrecision" shape-rendering="geometricPrecision" transform="matrix(1,0,0,1,19,15)" stroke="rgb(255,204,0)">
      <circle r="15" clip-path="url(#clipPath2)" cx="258.137" cy="163" stroke="none"/>
    </g>
    <g text-rendering="geometricPrecision" stroke-miterlimit="1.45" shape-rendering="geometricPrecision" transform="matrix(1,0,0,1,19,15)" stroke-linecap="butt">
      <circle fill="none" r="15" clip-path="url(#clipPath2)" cx="258.137" cy="163"/>
    </g>
    <g stroke-linecap="butt" font-size="9px" transform="matrix(1,0,0,1,19,15)" fill="red" text-rendering="geometricPrecision" font-family="sans-serif" shape-rendering="geometricPrecision" stroke="red" stroke-miterlimit="1.45">
      <text x="240.2739" xml:space="preserve" y="151.1157" clip-path="url(#clipPath2)" stroke="none">8</text>
      <text x="254.7942" font-size="12px" y="167.1543" clip-path="url(#clipPath2)" fill="black" stroke="none" xml:space="preserve">L</text>
    </g>
    <g fill="rgb(255,204,0)" text-rendering="geometricPrecision" shape-rendering="geometricPrecision" transform="matrix(1,0,0,1,19,15)" stroke="rgb(255,204,0)">
      <circle r="15" clip-path="url(#clipPath2)" cx="19.7058" cy="373" stroke="none"/>
    </g>
    <g text-rendering="geometricPrecision" stroke-miterlimit="1.45" shape-rendering="geometricPrecision" transform="matrix(1,0,0,1,19,15)" stroke-linecap="butt">
      <circle fill="none" r="15" clip-path="url(#clipPath2)" cx="19.7058" cy="373"/>
    </g>
    <g stroke-linecap="butt" font-size="9px" transform="matrix(1,0,0,1,19,15)" fill="red" text-rendering="geometricPrecision" font-family="sans-serif" shape-rendering="geometricPrecision" stroke="red" stroke-miterlimit="1.45">
      <text x="-1.0202" xml:space="preserve" y="361.1157" clip-path="url(#clipPath2)" stroke="none">15</text>
      <text x="15.1941" font-size="12px" y="377.1543" clip-path="url(#clipPath2)" fill="black" stroke="none" xml:space="preserve">H</text>
    </g>
    <g fill="rgb(255,204,0)" text-rendering="geometricPrecision" shape-rendering="geometricPrecision" transform="matrix(1,0,0,1,19,15)" stroke="rgb(255,204,0)">
      <circle r="15" clip-path="url(#clipPath2)" cx="44.7058" cy="303" stroke="none"/>
    </g>
    <g text-rendering="geometricPrecision" stroke-miterlimit="1.45" shape-rendering="geometricPrecision" transform="matrix(1,0,0,1,19,15)" stroke-linecap="butt">
      <circle fill="none" r="15" clip-path="url(#clipPath2)" cx="44.7058" cy="303"/>
    </g>
    <g stroke-linecap="butt" font-size="9px" transform="matrix(1,0,0,1,19,15)" fill="red" text-rendering="geometricPrecision" font-family="sans-serif" shape-rendering="geometricPrecision" stroke="red" stroke-miterlimit="1.45">
      <text x="23.9798" xml:space="preserve" y="291.1157" clip-path="url(#clipPath2)" stroke="none">13</text>
      <text x="40.3142" font-size="12px" y="307.1543" clip-path="url(#clipPath2)" fill="black" stroke="none" xml:space="preserve">U</text>
    </g>
    <g fill="rgb(255,204,0)" text-rendering="geometricPrecision" shape-rendering="geometricPrecision" transform="matrix(1,0,0,1,19,15)" stroke="rgb(255,204,0)">
      <circle r="15" clip-path="url(#clipPath2)" cx="99.3487" cy="303" stroke="none"/>
    </g>
    <g text-rendering="geometricPrecision" stroke-miterlimit="1.45" shape-rendering="geometricPrecision" transform="matrix(1,0,0,1,19,15)" stroke-linecap="butt">
      <circle fill="none" r="15" clip-path="url(#clipPath2)" cx="99.3487" cy="303"/>
    </g>
    <g stroke-linecap="butt" font-size="9px" transform="matrix(1,0,0,1,19,15)" fill="red" text-rendering="geometricPrecision" font-family="sans-serif" shape-rendering="geometricPrecision" stroke="red" stroke-miterlimit="1.45">
      <text x="78.6226" xml:space="preserve" y="291.1157" clip-path="url(#clipPath2)" stroke="none">14</text>
      <text x="94.6993" font-size="12px" y="307.1543" clip-path="url(#clipPath2)" fill="black" stroke="none" xml:space="preserve">G</text>
    </g>
    <g fill="rgb(255,204,0)" text-rendering="geometricPrecision" shape-rendering="geometricPrecision" transform="matrix(1,0,0,1,19,15)" stroke="rgb(255,204,0)">
      <circle r="15" clip-path="url(#clipPath2)" cx="215.0821" cy="233" stroke="none"/>
    </g>
    <g text-rendering="geometricPrecision" stroke-miterlimit="1.45" shape-rendering="geometricPrecision" transform="matrix(1,0,0,1,19,15)" stroke-linecap="butt">
      <circle fill="none" r="15" clip-path="url(#clipPath2)" cx="215.0821" cy="233"/>
    </g>
    <g stroke-linecap="butt" font-size="9px" transform="matrix(1,0,0,1,19,15)" fill="red" text-rendering="geometricPrecision" font-family="sans-serif" shape-rendering="geometricPrecision" stroke="red" stroke-miterlimit="1.45">
      <text x="194.356" xml:space="preserve" y="221.1157" clip-path="url(#clipPath2)" stroke="none">11</text>
      <text x="211.464" font-size="12px" y="237.1543" clip-path="url(#clipPath2)" fill="black" stroke="none" xml:space="preserve">P</text>
    </g>
    <g fill="rgb(255,204,0)" text-rendering="geometricPrecision" shape-rendering="geometricPrecision" transform="matrix(1,0,0,1,19,15)" stroke="rgb(255,204,0)">
      <circle r="15" clip-path="url(#clipPath2)" cx="165.0821" cy="233" stroke="none"/>
    </g>
    <g text-rendering="geometricPrecision" stroke-miterlimit="1.45" shape-rendering="geometricPrecision" transform="matrix(1,0,0,1,19,15)" stroke-linecap="butt">
      <circle fill="none" r="15" clip-path="url(#clipPath2)" cx="165.0821" cy="233"/>
    </g>
    <g stroke-linecap="butt" font-size="9px" transform="matrix(1,0,0,1,19,15)" fill="red" text-rendering="geometricPrecision" font-family="sans-serif" shape-rendering="geometricPrecision" stroke="red" stroke-miterlimit="1.45">
      <text x="144.356" xml:space="preserve" y="221.1157" clip-path="url(#clipPath2)" stroke="none">10</text>
      <text x="160.8927" font-size="12px" y="237.1543" clip-path="url(#clipPath2)" fill="black" stroke="none" xml:space="preserve">C</text>
    </g>
    <g fill="rgb(255,204,0)" text-rendering="geometricPrecision" shape-rendering="geometricPrecision" transform="matrix(1,0,0,1,19,15)" stroke="rgb(255,204,0)">
      <circle r="15" clip-path="url(#clipPath2)" cx="72.0273" cy="233" stroke="none"/>
    </g>
    <g text-rendering="geometricPrecision" stroke-miterlimit="1.45" shape-rendering="geometricPrecision" transform="matrix(1,0,0,1,19,15)" stroke-linecap="butt">
      <circle fill="none" r="15" clip-path="url(#clipPath2)" cx="72.0273" cy="233"/>
    </g>
    <g stroke-linecap="butt" font-size="9px" transform="matrix(1,0,0,1,19,15)" fill="red" text-rendering="geometricPrecision" font-family="sans-serif" shape-rendering="geometricPrecision" stroke="red" stroke-miterlimit="1.45">
      <text x="54.1642" xml:space="preserve" y="221.1157" clip-path="url(#clipPath2)" stroke="none">9</text>
      <text x="67.9111" font-size="12px" y="237.1543" clip-path="url(#clipPath2)" fill="black" stroke="none" xml:space="preserve">B</text>
    </g>
    <g fill="rgb(255,204,0)" text-rendering="geometricPrecision" shape-rendering="geometricPrecision" transform="matrix(1,0,0,1,19,15)" stroke="rgb(255,204,0)">
      <circle r="15" clip-path="url(#clipPath2)" cx="190.0821" cy="163" stroke="none"/>
    </g>
    <g text-rendering="geometricPrecision" stroke-miterlimit="1.45" shape-rendering="geometricPrecision" transform="matrix(1,0,0,1,19,15)" stroke-linecap="butt">
      <circle fill="none" r="15" clip-path="url(#clipPath2)" cx="190.0821" cy="163"/>
    </g>
    <g stroke-linecap="butt" font-size="9px" transform="matrix(1,0,0,1,19,15)" fill="red" text-rendering="geometricPrecision" font-family="sans-serif" shape-rendering="geometricPrecision" stroke="red" stroke-miterlimit="1.45">
      <text x="172.2191" xml:space="preserve" y="151.1157" clip-path="url(#clipPath2)" stroke="none">7</text>
      <text x="185.9132" font-size="12px" y="167.1543" clip-path="url(#clipPath2)" fill="black" stroke="none" xml:space="preserve">R</text>
    </g>
    <g fill="rgb(255,204,0)" text-rendering="geometricPrecision" shape-rendering="geometricPrecision" transform="matrix(1,0,0,1,19,15)" stroke="rgb(255,204,0)">
      <circle r="15" clip-path="url(#clipPath2)" cx="135.0821" cy="163" stroke="none"/>
    </g>
    <g text-rendering="geometricPrecision" stroke-miterlimit="1.45" shape-rendering="geometricPrecision" transform="matrix(1,0,0,1,19,15)" stroke-linecap="butt">
      <circle fill="none" r="15" clip-path="url(#clipPath2)" cx="135.0821" cy="163"/>
    </g>
    <g stroke-linecap="butt" font-size="9px" transform="matrix(1,0,0,1,19,15)" fill="red" text-rendering="geometricPrecision" font-family="sans-serif" shape-rendering="geometricPrecision" stroke="red" stroke-miterlimit="1.45">
      <text x="117.2191" xml:space="preserve" y="151.1157" clip-path="url(#clipPath2)" stroke="none">6</text>
      <text x="130.3595" font-size="12px" y="167.1543" clip-path="url(#clipPath2)" fill="black" stroke="none" xml:space="preserve">O</text>
    </g>
    <g fill="rgb(255,204,0)" text-rendering="geometricPrecision" shape-rendering="geometricPrecision" transform="matrix(1,0,0,1,19,15)" stroke="rgb(255,204,0)">
      <circle r="15" clip-path="url(#clipPath2)" cx="308.137" cy="93" stroke="none"/>
    </g>
    <g text-rendering="geometricPrecision" stroke-miterlimit="1.45" shape-rendering="geometricPrecision" transform="matrix(1,0,0,1,19,15)" stroke-linecap="butt">
      <circle fill="none" r="15" clip-path="url(#clipPath2)" cx="308.137" cy="93"/>
    </g>
    <g stroke-linecap="butt" font-size="9px" transform="matrix(1,0,0,1,19,15)" fill="red" text-rendering="geometricPrecision" font-family="sans-serif" shape-rendering="geometricPrecision" stroke="red" stroke-miterlimit="1.45">
      <text x="290.2739" xml:space="preserve" y="81.1157" clip-path="url(#clipPath2)" stroke="none">4</text>
      <text x="304.0266" font-size="12px" y="97.1543" clip-path="url(#clipPath2)" fill="black" stroke="none" xml:space="preserve">Z</text>
    </g>
    <g fill="rgb(255,204,0)" text-rendering="geometricPrecision" shape-rendering="geometricPrecision" transform="matrix(1,0,0,1,19,15)" stroke="rgb(255,204,0)">
      <path d="M69.7058 388 L73.15 381.3149 L80.3124 383.6066 L78.0208 376.4442 L84.7058 373 L78.0208 369.5558 L80.3124 362.3934 L73.15 364.6851 L69.7058 358 L66.2617 364.6851 L59.0992 362.3934 L61.3909 369.5558 L54.7058 373 L61.3909 376.4442 L59.0992 383.6066 L66.2617 381.3149 Z" fill-rule="evenodd" clip-path="url(#clipPath2)" stroke="none"/>
    </g>
    <g text-rendering="geometricPrecision" stroke-miterlimit="1.45" shape-rendering="geometricPrecision" transform="matrix(1,0,0,1,19,15)" stroke-linecap="butt">
      <path fill="none" d="M69.7058 388 L73.15 381.3149 L80.3124 383.6066 L78.0208 376.4442 L84.7058 373 L78.0208 369.5558 L80.3124 362.3934 L73.15 364.6851 L69.7058 358 L66.2617 364.6851 L59.0992 362.3934 L61.3909 369.5558 L54.7058 373 L61.3909 376.4442 L59.0992 383.6066 L66.2617 381.3149 Z" fill-rule="evenodd" clip-path="url(#clipPath2)"/>
    </g>
    <g stroke-linecap="butt" font-size="9px" transform="matrix(1,0,0,1,19,15)" fill="red" text-rendering="geometricPrecision" font-family="sans-serif" shape-rendering="geometricPrecision" stroke="red" stroke-miterlimit="1.45">
      <text x="48.9798" xml:space="preserve" y="361.1157" clip-path="url(#clipPath2)" stroke="none">16</text>
      <text x="65.6013" font-size="12px" y="377.1543" clip-path="url(#clipPath2)" fill="black" stroke="none" xml:space="preserve">V</text>
    </g>
    <g fill="rgb(255,204,0)" text-rendering="geometricPrecision" shape-rendering="geometricPrecision" transform="matrix(1,0,0,1,19,15)" stroke="rgb(255,204,0)">
      <circle r="15" clip-path="url(#clipPath2)" cx="258.137" cy="93" stroke="none"/>
    </g>
    <g text-rendering="geometricPrecision" stroke-miterlimit="1.45" shape-rendering="geometricPrecision" transform="matrix(1,0,0,1,19,15)" stroke-linecap="butt">
      <circle fill="none" r="15" clip-path="url(#clipPath2)" cx="258.137" cy="93"/>
    </g>
    <g stroke-linecap="butt" font-size="9px" transform="matrix(1,0,0,1,19,15)" fill="red" text-rendering="geometricPrecision" font-family="sans-serif" shape-rendering="geometricPrecision" stroke="red" stroke-miterlimit="1.45">
      <text x="240.2739" xml:space="preserve" y="81.1157" clip-path="url(#clipPath2)" stroke="none">3</text>
      <text x="254.4719" font-size="12px" y="97.1543" clip-path="url(#clipPath2)" fill="black" stroke="none" xml:space="preserve">T</text>
    </g>
    <g fill="rgb(255,204,0)" text-rendering="geometricPrecision" shape-rendering="geometricPrecision" transform="matrix(1,0,0,1,19,15)" stroke="rgb(255,204,0)">
      <circle r="15" clip-path="url(#clipPath2)" cx="72.0273" cy="163" stroke="none"/>
    </g>
    <g text-rendering="geometricPrecision" stroke-miterlimit="1.45" shape-rendering="geometricPrecision" transform="matrix(1,0,0,1,19,15)" stroke-linecap="butt">
      <circle fill="none" r="15" clip-path="url(#clipPath2)" cx="72.0273" cy="163"/>
    </g>
    <g stroke-linecap="butt" font-size="9px" transform="matrix(1,0,0,1,19,15)" fill="red" text-rendering="geometricPrecision" font-family="sans-serif" shape-rendering="geometricPrecision" stroke="red" stroke-miterlimit="1.45">
      <text x="54.1642" xml:space="preserve" y="151.1157" clip-path="url(#clipPath2)" stroke="none">5</text>
      <text x="68.5761" font-size="12px" y="167.1543" clip-path="url(#clipPath2)" fill="black" stroke="none" xml:space="preserve">F</text>
    </g>
    <g fill="rgb(255,204,0)" text-rendering="geometricPrecision" shape-rendering="geometricPrecision" transform="matrix(1,0,0,1,19,15)" stroke="rgb(255,204,0)">
      <circle r="15" clip-path="url(#clipPath2)" cx="153.4941" cy="93" stroke="none"/>
    </g>
    <g text-rendering="geometricPrecision" stroke-miterlimit="1.45" shape-rendering="geometricPrecision" transform="matrix(1,0,0,1,19,15)" stroke-linecap="butt">
      <circle fill="none" r="15" clip-path="url(#clipPath2)" cx="153.4941" cy="93"/>
    </g>
    <g stroke-linecap="butt" font-size="9px" transform="matrix(1,0,0,1,19,15)" fill="red" text-rendering="geometricPrecision" font-family="sans-serif" shape-rendering="geometricPrecision" stroke="red" stroke-miterlimit="1.45">
      <text x="135.6311" xml:space="preserve" y="81.1157" clip-path="url(#clipPath2)" stroke="none">2</text>
      <text x="149.6855" font-size="12px" y="97.1543" clip-path="url(#clipPath2)" fill="black" stroke="none" xml:space="preserve">S</text>
    </g>
    <g fill="rgb(255,204,0)" text-rendering="geometricPrecision" shape-rendering="geometricPrecision" transform="matrix(1,0,0,1,19,15)" stroke="rgb(255,204,0)">
      <path d="M258.137 38 L261.5811 31.3149 L268.7436 33.6066 L266.4519 26.4442 L273.137 23 L266.4519 19.5558 L268.7436 12.3934 L261.5811 14.6851 L258.137 8 L254.6928 14.6851 L247.5304 12.3934 L249.8221 19.5558 L243.137 23 L249.8221 26.4442 L247.5304 33.6066 L254.6928 31.3149 Z" fill-rule="evenodd" clip-path="url(#clipPath2)" stroke="none"/>
    </g>
    <g text-rendering="geometricPrecision" stroke-miterlimit="1.45" shape-rendering="geometricPrecision" transform="matrix(1,0,0,1,19,15)" stroke-linecap="butt">
      <path fill="none" d="M258.137 38 L261.5811 31.3149 L268.7436 33.6066 L266.4519 26.4442 L273.137 23 L266.4519 19.5558 L268.7436 12.3934 L261.5811 14.6851 L258.137 8 L254.6928 14.6851 L247.5304 12.3934 L249.8221 19.5558 L243.137 23 L249.8221 26.4442 L247.5304 33.6066 L254.6928 31.3149 Z" fill-rule="evenodd" clip-path="url(#clipPath2)"/>
    </g>
    <g stroke-linecap="butt" font-size="9px" transform="matrix(1,0,0,1,19,15)" fill="red" text-rendering="geometricPrecision" font-family="sans-serif" shape-rendering="geometricPrecision" stroke="red" stroke-miterlimit="1.45">
      <text x="240.2739" xml:space="preserve" y="11.1157" clip-path="url(#clipPath2)" stroke="none">1</text>
      <text x="254.0325" font-size="12px" y="27.1543" clip-path="url(#clipPath2)" fill="black" stroke="none" xml:space="preserve">A</text>
    </g>
    <g text-rendering="geometricPrecision" stroke-miterlimit="1.45" shape-rendering="geometricPrecision" transform="matrix(1,0,0,1,19,15)" stroke-linecap="butt">
      <path fill="none" d="M258.137 178 L258.137 218" clip-path="url(#clipPath2)"/>
      <path fill="none" d="M39.6608 317.1261 L24.7509 358.8739" clip-path="url(#clipPath2)"/>
      <path fill="none" d="M66.5734 246.9734 L50.1597 289.0266" clip-path="url(#clipPath2)"/>
      <path fill="none" d="M77.4812 246.9734 L93.8948 289.0266" clip-path="url(#clipPath2)"/>
      <path fill="none" d="M195.1272 177.1261 L210.0371 218.8739" clip-path="url(#clipPath2)"/>
      <path fill="none" d="M185.0371 177.1261 L170.1272 218.8739" clip-path="url(#clipPath2)"/>
      <path fill="none" d="M49.7509 317.1261 L66.5392 364.1333" clip-path="url(#clipPath2)"/>
      <path fill="none" d="M258.137 108 L258.137 148" clip-path="url(#clipPath2)"/>
      <path fill="none" d="M72.0273 178 L72.0273 218" clip-path="url(#clipPath2)"/>
      <path fill="none" d="M160.4425 106.2936 L183.1337 149.7064" clip-path="url(#clipPath2)"/>
      <path fill="none" d="M149.6785 107.5066 L138.8978 148.4934" clip-path="url(#clipPath2)"/>
      <path fill="none" d="M142.1171 102.7757 L83.4043 153.2243" clip-path="url(#clipPath2)"/>
      <path fill="none" d="M264.802 32.3311 L299.4184 80.794" clip-path="url(#clipPath2)"/>
      <path fill="none" d="M258.137 38.0049 L258.137 78" clip-path="url(#clipPath2)"/>
      <path fill="none" d="M248.9654 29.1353 L165.9617 84.6599" clip-path="url(#clipPath2)"/>
    </g>
  </g>
</svg>
